<svg width="150" height="148" viewBox="0 0 150 148" fill="none" xmlns="http://www.w3.org/2000/svg">
    <path d="M149.823 143.355C148.547 146.39 146.267 147.504 142.998 147.438C135.638 147.298 128.275 147.397 120.911 147.394C116.963 147.394 114.871 145.301 114.871 141.342C114.871 124.272 114.863 107.205 114.849 90.1421C114.829 88.2965 114.692 86.454 114.438 84.6258C113.815 79.828 110.674 77.0314 106.506 75.3124C100.206 72.7173 93.7842 74.6563 89.8184 80.2018C88.1752 82.5289 87.2698 85.2963 87.2197 88.1445C87.1354 90.6259 87.1647 93.1146 87.1647 95.6034C87.1647 110.961 87.1647 126.321 87.1647 141.683C87.1647 145.426 85.2661 147.386 81.5312 147.394C72.8029 147.416 64.0747 147.416 55.3464 147.394C51.5565 147.394 49.7056 145.502 49.7056 141.731V50.9053C49.7056 46.9284 51.6225 45.0408 55.625 45.0408C63.2818 45.0408 70.9385 45.1654 78.5916 44.9785C81.9527 44.8979 85.0206 47.4306 84.632 51.0445C84.5624 51.708 84.632 52.3824 84.632 53.3133C84.9559 53.0933 85.2667 52.8546 85.563 52.5986C92.3365 45.7482 100.653 42.651 110.172 42.5044C115.545 42.4238 120.918 42.5044 126.061 44.3371C138.343 48.6841 145.886 57.3158 148.936 69.9244C149.332 71.5701 149.54 73.2561 149.837 74.9238L149.823 143.355ZM120.072 142.398H142.833C144.838 142.398 144.838 142.398 144.838 140.455C144.838 119.971 144.838 99.4861 144.838 78.9996C144.834 77.2924 144.736 75.5867 144.545 73.8902C143.888 67.9144 141.428 62.2801 137.492 57.7358C133.556 53.1916 128.33 49.9527 122.509 48.4495C117.675 47.196 112.748 47.3096 107.83 47.6395C100.356 48.138 94.0408 51.1802 88.8654 56.5828C86.2374 59.3244 83.6314 62.0807 81.0107 64.8443C80.7285 65.1375 80.395 65.3758 79.8452 65.8523V50.0916H55.0642V142.27H82.4109V140.554C82.4109 133.238 82.4109 125.923 82.4109 118.607C82.4109 108.219 82.2972 97.8282 82.5282 87.4518C82.7517 77.5555 90.9583 69.5945 100.807 69.261C108.647 68.9971 116.282 73.6923 118.525 80.6234C119.452 83.4859 119.786 86.6454 119.819 89.6729C119.998 106.533 120.002 123.423 120.068 140.301C120.075 140.921 120.072 141.544 120.072 142.398Z" fill="#FD4B3D"/>
    <path d="M2.48938 96.0946C2.48938 81.9075 2.48938 67.7204 2.48938 53.5333C2.48938 51.3928 2.75328 49.3549 4.19741 47.6395C5.55723 46.0305 7.26525 45.0372 9.38011 45.0372C16.3038 44.9969 23.2275 44.9602 30.1476 45.0372C33.9338 45.0812 37.075 48.1893 37.4049 51.9609C37.4525 52.54 37.4415 53.1301 37.4415 53.7129C37.4415 82.0871 37.4415 110.461 37.4415 138.835C37.4415 144.275 34.3663 147.379 28.9527 147.39C22.9563 147.39 16.9599 147.39 10.9635 147.39C5.64886 147.39 2.49672 144.256 2.48938 138.96C2.48205 124.665 2.48205 110.377 2.48938 96.0946ZM32.4604 96.3915V53.8339C32.4604 50.7954 31.6687 49.9853 28.6925 49.9853H10.8536C8.24021 49.9853 7.49982 50.7184 7.49982 53.4014C7.49982 81.9173 7.49982 110.434 7.49982 138.953C7.49982 141.471 8.41981 142.387 10.9452 142.391C16.9905 142.391 23.0357 142.391 29.081 142.391C31.6467 142.391 32.4604 141.537 32.4604 138.949V96.3915Z" fill="#FD4B3D"/>
    <path d="M39.9338 20.067C39.483 32.0305 30.4041 40.4826 18.5432 39.9951C8.12283 39.5663 -0.409942 29.8716 0.0152309 18.9857C0.429408 8.35641 9.91149 -0.278992 20.6251 0.00690004C32.0498 0.322114 40.4763 10.6545 39.9338 20.067ZM34.9087 19.9534C34.8354 11.6845 28.3332 5.08698 20.2183 5.032C18.2276 4.9974 16.25 5.36007 14.4012 6.09881C12.5523 6.83754 10.8693 7.93751 9.4506 9.33438C8.03189 10.7312 6.90594 12.397 6.13861 14.2341C5.37129 16.0713 4.97798 18.043 4.98169 20.034C5.00734 28.6877 11.7881 35.0836 20.8414 35.0177C28.3808 34.9627 34.9783 27.896 34.9087 19.9534Z" fill="#FD4B3D"/>
</svg>
