<svg width="161" height="133" viewBox="0 0 161 133" fill="none" xmlns="http://www.w3.org/2000/svg">
    <path d="M161 63.0208C160.212 64.931 158.688 65.5454 156.727 65.4784C154.951 65.4233 153.182 65.5099 151.394 65.4548C149.137 65.3878 147.723 64.0645 147.79 62.1819C147.857 60.2993 149.192 59.2162 151.461 59.1847C153.237 59.1571 155.006 59.2595 156.794 59.1532C158.724 59.039 160.138 59.6967 161 61.4493V63.0208Z" fill="#FD4B3D"/>
    <path d="M51.6356 88.7097C52.51 92.3371 53.3607 95.8818 54.2193 99.4225C55.7947 105.878 57.3701 112.333 58.9218 118.796C60.3791 124.893 57.441 130.426 51.5371 131.888C47.5513 132.906 43.3675 132.857 39.4066 131.746C35.5193 130.619 33.3294 127.665 32.3684 123.77C29.643 112.534 26.886 101.301 24.2118 90.0528C23.9164 88.82 23.365 88.3868 22.1756 88.2095C9.46604 86.3466 -0.151788 74.9959 0.00181416 62.0776C0.155416 48.986 9.91897 37.9306 22.7821 36.2725C24.0788 36.0988 25.3849 36.0054 26.6931 35.9929C36.7047 35.9692 46.7125 36.0165 56.7242 35.9732C71.6905 35.9023 85.7943 32.5152 98.7598 24.9453C106.704 20.3832 113.462 14.0148 118.488 6.3556C119.465 4.86685 120.422 3.3584 121.497 1.94448C122.895 0.105197 124.908 -0.335916 127.011 0.231229C129.114 0.798373 130.555 2.23987 130.835 4.52814C130.945 5.35735 131.001 6.19269 131.004 7.02909C131.004 19.5036 131.004 31.9756 131.004 44.4449C131.004 45.5634 131.264 46.0912 132.442 46.3393C140.319 47.9817 145.604 55.2521 144.935 63.3458C144.257 71.211 139.827 76.4925 132.182 78.3003C130.859 78.6114 131 79.3479 131 80.2223C131 92.8018 131 105.38 131 117.957C131 120.257 130.607 122.364 128.488 123.707C127.346 124.489 125.941 124.786 124.581 124.533C123.221 124.279 122.017 123.497 121.233 122.356C119.724 120.285 118.444 118.044 116.924 115.98C108.712 104.846 97.6807 97.6895 84.7269 93.239C74.345 89.6668 63.652 88.3671 52.7266 88.5955C52.4312 88.6034 52.124 88.6585 51.6356 88.7097ZM124.624 8.73052C108.504 31.9086 85.5068 40.9042 58.7998 42.3969V82.3136C71.7968 82.7075 84.1519 85.4014 95.7902 90.9783C107.404 96.4622 117.354 104.931 124.624 115.519V8.73052ZM52.2855 42.3338C51.8916 42.3063 51.612 42.2748 51.356 42.2748C42.9197 42.2748 34.4874 42.2433 26.055 42.3063C24.487 42.3289 22.927 42.5364 21.4076 42.9246C11.8803 45.2877 5.40938 54.429 6.34675 64.0783C7.32349 74.1491 15.4762 81.9867 25.5509 82.2151C34.192 82.4121 42.837 82.2821 51.4781 82.29C51.7441 82.2647 52.0076 82.2173 52.2658 82.1482V75.2794H50.4856C44.8299 75.2794 39.1729 75.2794 33.5146 75.2794C31.5689 75.2794 30.3322 74.4917 29.8951 73.1054C29.2098 70.9234 30.7182 69.0211 33.2546 69.0054C39.0166 68.9699 44.7787 69.0054 50.5407 69.0054H52.2973L52.2855 42.3338ZM30.3992 88.5916C30.5252 89.2651 30.5882 89.7141 30.6946 90.167C31.7737 94.6306 32.8581 99.0943 33.9478 103.558C35.4365 109.702 36.9266 115.847 38.418 121.994C39.119 124.861 40.4896 125.999 43.3529 126.074C45.0819 126.122 46.8109 126.133 48.536 126.074C51.1866 125.972 53.1007 124.357 53.0141 122.01C52.9349 120.341 52.5616 118.7 51.9113 117.161C51.7301 116.728 50.2296 116.854 49.3316 116.716C49.1255 116.678 48.9217 116.628 48.7211 116.567C48.0293 116.404 47.4145 116.009 46.9799 115.446C46.5453 114.884 46.3174 114.189 46.3344 113.479C46.3715 112.768 46.6482 112.091 47.1195 111.557C47.5908 111.024 48.2289 110.665 48.9299 110.541C49.371 110.458 49.82 110.411 50.3792 110.332C50.1232 109.249 49.8987 108.292 49.6742 107.331C48.9496 104.283 48.9496 104.283 45.8224 103.987H45.6688C43.9477 103.79 42.8212 102.656 42.7503 101.049C42.6795 99.4422 43.7232 98.2055 45.397 97.8983C45.9917 97.7841 46.5786 97.6974 47.2914 97.5832C46.6101 94.779 45.9878 92.0693 45.2513 89.4147C45.1528 89.0642 44.4636 88.6782 44.0146 88.6664C41.553 88.5955 39.0915 88.631 36.6339 88.631L30.3992 88.5916ZM131.067 72.0774C136.061 71.0849 139.074 66.6541 138.614 61.2032C138.22 56.6661 134.777 52.7276 131.067 52.6724V72.0774Z" fill="#FD4B3D"/>
    <path d="M146.274 80.6172C146.763 80.885 147.625 81.1843 148.263 81.7436C151.123 84.2642 153.944 86.8282 156.727 89.4355C158.33 90.9282 158.476 92.7911 157.215 94.1381C155.955 95.485 154.1 95.485 152.489 94.0396C149.646 91.4953 146.826 88.9288 144.029 86.3398C142.958 85.3513 142.411 84.1343 142.99 82.677C143.494 81.3852 144.529 80.7629 146.274 80.6172Z" fill="#FD4B3D"/>
    <path d="M146.29 43.9086C143.442 43.7904 142.04 41.3446 143.162 39.3438C143.459 38.8528 143.831 38.4116 144.265 38.0363C146.957 35.5603 149.658 33.0974 152.371 30.6476C154.119 29.0722 155.915 29.025 157.227 30.4507C158.538 31.8764 158.298 33.7 156.609 35.2675C153.887 37.7881 151.162 40.3048 148.369 42.7507C147.668 43.3572 146.711 43.6801 146.29 43.9086Z" fill="#FD4B3D"/>
    <path d="M22.9712 72.0643C22.9842 72.8854 22.6762 73.6792 22.1127 74.2765C21.5492 74.8739 20.7747 75.2276 19.9543 75.2624C19.1089 75.2667 18.2955 74.939 17.6893 74.3498C17.0831 73.7605 16.7325 72.9568 16.7129 72.1116C16.7314 71.2883 17.0715 70.505 17.6604 69.9293C18.2493 69.3537 19.0402 69.0315 19.8637 69.0317C20.2674 69.0249 20.6684 69.0982 21.0436 69.2473C21.4187 69.3963 21.7607 69.6183 22.0496 69.9002C22.3385 70.1822 22.5687 70.5186 22.7269 70.8901C22.8851 71.2615 22.9681 71.6606 22.9712 72.0643Z" fill="#FD4B3D"/>
</svg>
