<svg width="161" height="131" viewBox="0 0 161 131" fill="none" xmlns="http://www.w3.org/2000/svg">
    <path d="M160.965 18.0166C159.32 21.141 157.856 24.3795 155.979 27.3622C154.24 30.1167 151.686 32.218 148.805 33.7998C148.362 33.9906 147.99 34.3159 147.743 34.7298C147.495 35.1437 147.383 35.625 147.424 36.1057C147.338 51.5466 144.076 66.2871 137.193 80.1304C127.037 100.592 111.817 115.895 90.548 124.808C80.1242 129.176 69.2164 131.033 57.9151 130.829C48.9512 130.663 40.0149 130.203 31.1572 128.786C22.5003 127.397 13.9771 125.568 6.14645 121.424C3.82087 120.185 1.4284 118.965 0 116.572V114.687C0.830282 112.669 2.33738 111.815 4.52524 111.752C12.2457 111.532 19.8717 110.65 27.1986 108.029C30.811 106.735 34.2816 105.055 37.8231 103.551L37.6854 102.989C36.5049 102.78 35.348 102.595 34.1872 102.363C21.3906 99.9037 12.9382 92.4351 8.54286 80.2563C8.02737 78.8358 8.14936 77.5884 9.30231 76.5456C9.88783 76.0508 10.6145 75.7532 11.3789 75.6953C12.1433 75.6374 12.9066 75.822 13.56 76.2229C16.1145 77.7817 18.9846 78.7509 21.9612 79.0601C23.2585 79.2232 24.5721 79.206 25.8647 79.0089C25.4712 78.7413 25.1013 78.4619 24.7117 78.2219C16.0075 72.4571 9.22361 65.0122 4.82429 55.5052C4.06091 53.8486 3.46279 52.1133 2.8568 50.3897C2.36099 48.8905 2.57348 47.5487 3.81694 46.5295C4.94234 45.6087 6.49666 45.5969 7.88571 46.6515C10.7337 48.89 14.0598 50.4413 17.6051 51.1846C17.9042 51.2436 18.2072 51.2633 18.8092 51.3341C5.50898 36.7235 2.75449 20.9993 12.9146 3.44927C24.3025 16.0412 37.343 26.1109 53.5394 31.608C60.9137 34.0775 68.4485 36.0391 76.0908 37.479C76.6103 34.032 76.8778 30.6322 77.6648 27.3543C79.3406 20.3089 83.1185 13.9393 88.4975 9.09019C93.8764 4.24111 100.602 1.14168 107.783 0.202906C113.757 -0.584091 119.309 1.01351 124.704 3.3509C127.58 4.59829 130.346 6.10539 133.211 7.36852C133.931 7.70511 134.747 7.77484 135.513 7.56527C141.416 5.342 147.318 3.01642 153.221 0.71839C153.657 0.545251 154.11 0.179296 154.523 0.222581C155.554 0.324891 156.723 0.368175 157.557 0.887593C158.556 1.50932 158.737 2.76065 158.179 3.8467C156.491 7.13242 154.743 10.3906 152.98 13.637C152.646 14.2547 152.127 14.7781 151.406 15.7264L155.802 14.2429C158.407 13.3615 159.631 13.8101 161 16.1514L160.965 18.0166ZM35.2968 57.2091C26.9074 57.2602 18.6007 57.6813 10.6127 54.549C16.8811 66.4327 26.2582 74.6529 38.9879 79.1073C38.7557 80.7049 38.5944 82.2553 38.2599 83.782C38.193 84.0929 37.5634 84.4589 37.166 84.4943C35.8123 84.6202 34.4469 84.6438 33.0854 84.6438C29.2684 84.6438 25.4515 84.7028 21.6385 84.5415C19.793 84.4667 17.9672 83.9552 15.8973 83.5971C16.3695 84.3841 16.7158 85.0334 17.1015 85.6433C21.6857 92.8522 28.6152 96.3268 36.7764 97.342C41.9509 97.9834 47.2198 97.885 52.4455 98.1093C52.9807 98.1329 53.5198 98.1093 54.0549 98.1093C47.5189 103.134 41.2347 108.269 33.6638 111.445C26.0929 114.621 18.2033 116.167 10.0539 117.214C14.388 118.922 18.8169 120.379 23.3187 121.578C32.5896 123.939 42.0847 124.824 51.6152 125.237C59.9417 125.603 68.2642 125.532 76.4489 123.58C97.6979 118.516 114.024 106.428 126.108 88.504C137.126 72.1463 142.085 53.9155 141.99 34.2917C141.99 31.8166 142.466 30.4866 144.992 29.5304C148.979 28.0233 151.477 24.7218 153.673 20.7396C152.803 21.019 152.315 21.1725 151.831 21.3338C149.002 22.2703 146.181 23.2305 143.344 24.1355C141.951 24.5802 140.625 24.529 139.751 23.1124C138.964 21.8375 139.212 20.2635 140.345 19.0987C140.597 18.8351 140.892 18.6147 141.156 18.3629C142.702 16.8754 144.347 15.4746 145.76 13.8731C147.377 12.0433 148.79 10.0364 150.289 8.10436C145.673 9.46193 141.345 11.0123 137.067 12.6886C134.789 13.5779 132.707 13.3576 130.586 12.2479C128.037 10.9179 125.44 9.68229 122.862 8.41129C114.902 4.4763 106.882 4.3858 99.0239 8.48999C88.3562 14.0659 82.7725 23.0494 82.0406 35.0157C81.8595 37.9748 82.013 40.9576 82.013 44.0662C81.3677 43.9993 80.9584 43.9836 80.561 43.9088C77.5822 43.3382 74.5956 42.7913 71.6286 42.1656C62.5663 40.2335 53.6142 37.8725 45.0753 34.1855C34.9604 29.819 25.7017 23.6901 17.7311 16.0845C16.6962 15.1047 15.6337 14.1564 14.465 13.09C12.9382 17.025 12.1473 20.7711 12.2654 24.6864C12.5605 34.1737 17.066 41.6698 23.7831 47.9028C27.3285 51.2515 31.3304 54.0414 35.2968 57.2091Z" fill="#FD4B3D"/>
</svg>
